<svg width="194" height="40" viewBox="0 0 194 40" fill="none" xmlns="http://www.w3.org/2000/svg">
<g clip-path="url(#clip0_779_32086)">
<path d="M0.0301744 39.9095L0.0276599 39.9233H0L0.0301744 39.9095Z" fill="#8002FF"/>
<path d="M0.0301744 39.9095L0.0276599 39.9233H0L0.0301744 39.9095Z" fill="white"/>
<path d="M86.177 13.327C86.089 12.8128 85.9281 12.3212 85.693 11.851C85.4579 11.3808 85.1712 10.9923 84.8343 10.683C84.4961 10.375 84.1365 10.2203 83.7555 10.2203H56.0755C56.1044 10.6315 56.2289 11.0866 56.4502 11.5857C56.6702 12.0849 56.9204 12.5626 57.1995 13.0178C57.4786 13.4729 57.7351 13.8765 57.9702 14.2298C58.2053 14.5818 58.3524 14.8169 58.4102 14.9351L53.5635 34.4529H77.7181C78.1003 34.4529 78.5404 34.2983 79.0395 33.9903C79.5386 33.6822 80.0164 33.2925 80.4715 32.8223C80.9267 32.352 81.3303 31.868 81.6835 31.3689C82.0356 30.8697 82.2569 30.4146 82.3449 30.0035L86.1783 14.6711C86.2663 14.2889 86.2663 13.8413 86.1783 13.327H86.177ZM76.1327 17.8872L73.886 26.7874C73.8269 26.9634 73.7099 27.1469 73.5339 27.338C73.3579 27.5292 73.1957 27.6247 73.0499 27.6247H64.5357L67.1344 17.0511H75.6487C75.7958 17.0511 75.9278 17.1466 76.046 17.3377C76.1629 17.5288 76.1931 17.7124 76.134 17.8884L76.1327 17.8872Z" fill="white"/>
<path d="M172.527 10.2203H146.071C146.1 10.6315 146.225 11.0866 146.445 11.5857C146.665 12.0849 146.916 12.5626 147.195 13.0178C147.474 13.4729 147.73 13.8765 147.965 14.2298C148.129 14.4749 148.247 14.6585 148.325 14.7905L143.754 33.1441L138.336 10.2216H122.823C122.851 10.6327 122.977 11.0879 123.197 11.587C123.417 12.0861 123.667 12.5639 123.947 13.019C124.226 13.4741 124.482 13.8777 124.717 14.231C124.903 14.5101 125.032 14.7126 125.107 14.8446L111.699 33.0523L107.499 27.8447H107.939C109.055 27.8158 109.988 27.6763 110.736 27.4261C111.486 27.1759 112.109 26.8163 112.608 26.3473C113.108 25.8771 113.511 25.29 113.82 24.5846C114.13 23.8793 114.4 23.057 114.635 22.1179L116.486 14.6283C116.574 14.2461 116.574 13.7985 116.486 13.2843C116.398 12.7701 116.243 12.286 116.023 11.8309C115.803 11.3758 115.524 10.9936 115.186 10.6855C114.848 10.3775 114.488 10.2229 114.107 10.2229H89.9072L83.8711 34.4554H93.1233L97.4408 17.0523H105.999C106.146 17.0523 106.271 17.1479 106.374 17.339C106.477 17.5301 106.498 17.6986 106.439 17.8457L105.734 20.6657C105.587 21.1938 105.323 21.4591 104.94 21.4591H98.4969L96.7568 28.1553L102.296 34.4554H120.841L122.956 31.5474H134.059L134.764 34.4554H152.766L154.924 25.7325H166.567L168.285 18.947H156.643L157.084 17.0523H174.174L169.857 34.4554H179.109L183.427 17.0523H191.413L193.132 10.2229H172.529L172.527 10.2203ZM127.849 24.7594L131.461 19.7806L132.563 24.7594H127.848H127.849Z" fill="white"/>
<path d="M49.3112 7.07969L46.9966 16.1421L42.1372 35.4789C41.4671 38.1355 39.0783 40 36.3375 40H0.0325804L0.0288086 39.9221L28.8781 29.2252L25.3137 18.1034L47.7711 1.65835L47.795 1.63446C49.1654 2.98477 49.8393 5.01903 49.3112 7.07969Z" fill="#8002FF"/>
<path d="M47.795 1.63445L47.7711 1.65834L17.9877 12.7688L14.4045 25.7099L1.08496 29.537L8.03263 7.78375C7.93456 7.58762 7.69442 7.20163 7.30467 6.61952C6.91492 6.0374 6.49247 5.37105 6.03231 4.61921C5.57215 3.86736 5.15977 3.07905 4.79768 2.2568C4.43181 1.43077 4.22939 0.676411 4.17784 0H43.8157C45.3898 0 46.7842 0.629892 47.795 1.63445Z" fill="#8002FF"/>
</g>
<defs>
<clipPath id="clip0_779_32086">
<rect width="193.132" height="40" fill="white"/>
</clipPath>
</defs>
</svg>
