<svg width="24" height="24" viewBox="0 0 24 24" fill="none" xmlns="http://www.w3.org/2000/svg">
<path d="M22.4255 6.83022L21.4662 10.5657L19.4522 18.5364C19.1744 19.6314 18.1844 20.4 17.0484 20.4H2.00156L2 20.3679L13.9568 15.9586L12.4795 11.3742L21.7872 4.59554L21.7971 4.58569C22.3651 5.14229 22.6444 5.98081 22.4255 6.83022Z" fill="#E0D6EC"/>
<path d="M21.9143 4.68063L21.9044 4.69058L9.58002 9.31728L8.09729 14.7063L2.58569 16.3L5.46063 7.24136C5.42005 7.15969 5.32068 6.99896 5.1594 6.75655C4.99812 6.51414 4.82332 6.23665 4.6329 5.92356C4.44249 5.61047 4.27184 5.2822 4.12201 4.93979C3.97062 4.59581 3.88685 4.28168 3.86552 4H20.2677C20.919 4 21.496 4.2623 21.9143 4.68063Z" fill="#E0D6EC"/>
</svg>
